<svg width="219.11998291015624px" height="125.68001708984374px" xmlns="http://www.w3.org/2000/svg" viewBox="140.44000854492188 12.159991455078128 219.11998291015624 125.68001708984374" style="background: none;" preserveAspectRatio="xMidYMid"><defs><linearGradient id="editing-rainbow-gradient" x1="0" x2="1" y1="0.5" y2="0.5" gradientUnits="objectBoundingBox"><stop offset="0.00" stop-color="#eb7532"></stop><stop offset="0.17" stop-color="#f7d038"></stop><stop offset="0.34" stop-color="#a3e048"></stop><stop offset="0.51" stop-color="#49da9a"></stop><stop offset="0.68" stop-color="#34bbe6"></stop><stop offset="0.85" stop-color="#4355db"></stop><stop offset="1.00" stop-color="#d23be7"></stop></linearGradient><filter id="editing-rainbow" x="-100%" y="-100%" width="300%" height="300%"><feMorphology operator="dilate" radius="1,0" in="SourceGraphic" result="dilate"></feMorphology><feColorMatrix in="dilate" result="color" type="matrix" values="0.7 0 0 0 0  0 0.7 0 0 0  0 0 0.7 0 0  0 0 0 1 0"></feColorMatrix><feOffset dy="0" result="offset"></feOffset><feGaussianBlur stdDeviation="3"></feGaussianBlur><feOffset dy="3"></feOffset><feColorMatrix result="blur" type="matrix" values="0.7 0 0 0 0  0 0.7 0 0 0  0 0 0.7 0 0  0 0 0 1 0"></feColorMatrix><feMerge><feMergeNode in="blur"></feMergeNode><feMergeNode in="offset"></feMergeNode><feMergeNode in="SourceGraphic"></feMergeNode></feMerge></filter></defs><g filter="url(#editing-rainbow)"><g transform="translate(179.40999084711075, 98.82499885559082)"><path d="M13.09-17.02L30.21-17.02L23.01-35.68L23.01-35.68Q22.69-36.51 22.34-37.62L22.34-37.62L22.34-37.62Q21.98-38.72 21.66-39.97L21.66-39.97L21.66-39.97Q20.99-37.38 20.29-35.65L20.29-35.65L13.09-17.02ZM24.80-45.86L43.14 0L38.34 0L38.34 0Q37.50 0 36.99-0.42L36.99-0.42L36.99-0.42Q36.48-0.83 36.22-1.47L36.22-1.47L31.94-12.54L11.36-12.54L7.07-1.47L7.07-1.47Q6.88-0.90 6.34-0.45L6.34-0.45L6.34-0.45Q5.79 0 4.99 0L4.99 0L0.19 0L18.53-45.86L24.80-45.86ZM48.16-32.42L53.86-32.42L53.86 0L48.16 0L48.16-32.42ZM55.07-42.59L55.07-42.59L55.07-42.59Q55.07-41.76 54.74-41.04L54.74-41.04L54.74-41.04Q54.40-40.32 53.84-39.76L53.84-39.76L53.84-39.76Q53.28-39.20 52.53-38.88L52.53-38.88L52.53-38.88Q51.78-38.56 50.94-38.56L50.94-38.56L50.94-38.56Q50.11-38.56 49.39-38.88L49.39-38.88L49.39-38.88Q48.67-39.20 48.13-39.76L48.13-39.76L48.13-39.76Q47.58-40.32 47.26-41.04L47.26-41.04L47.26-41.04Q46.94-41.76 46.94-42.59L46.94-42.59L46.94-42.59Q46.94-43.42 47.26-44.18L47.26-44.18L47.26-44.18Q47.58-44.93 48.13-45.49L48.13-45.49L48.13-45.49Q48.67-46.05 49.39-46.37L49.39-46.37L49.39-46.37Q50.11-46.69 50.94-46.69L50.94-46.69L50.94-46.69Q51.78-46.69 52.53-46.37L52.53-46.37L52.53-46.37Q53.28-46.05 53.84-45.49L53.84-45.49L53.84-45.49Q54.40-44.93 54.74-44.18L54.74-44.18L54.74-44.18Q55.07-43.42 55.07-42.59ZM63.39-47.14L69.09-47.14L69.09 0L63.39 0L63.39-47.14ZM99.26-32.42L104.96-32.42L104.96 0L101.57 0L101.57 0Q100.35 0 100.03-1.18L100.03-1.18L99.58-4.67L99.58-4.67Q97.47-2.34 94.85-0.91L94.85-0.91L94.85-0.91Q92.22 0.51 88.83 0.51L88.83 0.51L88.83 0.51Q86.18 0.51 84.14-0.37L84.14-0.37L84.14-0.37Q82.11-1.25 80.74-2.85L80.74-2.85L80.74-2.85Q79.36-4.45 78.67-6.72L78.67-6.72L78.67-6.72Q77.98-8.99 77.98-11.74L77.98-11.74L77.98-32.42L83.68-32.42L83.68-11.74L83.68-11.74Q83.68-8.06 85.36-6.05L85.36-6.05L85.36-6.05Q87.04-4.03 90.50-4.03L90.50-4.03L90.50-4.03Q93.02-4.03 95.22-5.23L95.22-5.23L95.22-5.23Q97.41-6.43 99.26-8.54L99.26-8.54L99.26-32.42ZM118.91-31.23L119.36-27.71L119.36-27.71Q120.42-28.90 121.60-29.86L121.60-29.86L121.60-29.86Q122.78-30.82 124.11-31.50L124.11-31.50L124.11-31.50Q125.44-32.19 126.93-32.56L126.93-32.56L126.93-32.56Q128.42-32.93 130.14-32.93L130.14-32.93L130.14-32.93Q132.80-32.93 134.83-32.05L134.83-32.05L134.83-32.05Q136.86-31.17 138.22-29.55L138.22-29.55L138.22-29.55Q139.58-27.94 140.29-25.66L140.29-25.66L140.29-25.66Q140.99-23.39 140.99-20.64L140.99-20.64L140.99 0L135.26 0L135.26-20.64L135.26-20.64Q135.26-24.32 133.58-26.35L133.58-26.35L133.58-26.35Q131.90-28.38 128.48-28.38L128.48-28.38L128.48-28.38Q125.95-28.38 123.76-27.17L123.76-27.17L123.76-27.17Q121.57-25.95 119.71-23.87L119.71-23.87L119.71 0L113.98 0L113.98-32.42L117.41-32.42L117.41-32.42Q118.62-32.42 118.91-31.23L118.91-31.23Z" fill="url(#editing-rainbow-gradient)"></path></g></g><style>text {
  font-size: 64px;
  font-family: Arial Black;
  dominant-baseline: central;
  text-anchor: middle;
}</style></svg>